<svg xmlns="http://www.w3.org/2000/svg" version="1.1" xmlns:xlink="http://www.w3.org/1999/xlink" width="200" height="200"><svg xmlns="http://www.w3.org/2000/svg" version="1.1" xmlns:xlink="http://www.w3.org/1999/xlink" viewBox="0 0 200 200"><rect width="200" height="200" fill="url('#gradient')"></rect><defs><linearGradient id="SvgjsLinearGradient1001" gradientTransform="rotate(45 0.5 0.5)"><stop offset="0%" stop-color="#ceaa96"></stop><stop offset="100%" stop-color="#8fa983"></stop></linearGradient></defs><g><g fill="#445272" transform="matrix(1.155538837690427,0,0,1.155538837690427,8.758692525238931,106.38181295640625)" stroke="#c8512e" stroke-width="0.2"><path d="M1.07-14.22L5.58-14.22L8.75-4.33L11.91-14.22L16.43-14.22L16.43 0L12.99 0L12.99-3.32L13.32-10.12L9.88 0L7.62 0L4.17-10.13L4.50-3.32L4.50 0L1.07 0L1.07-14.22ZM20.91-14.22L23.54-8.05L26.15-14.22L29.85-14.22L25.27-5.11L25.27 0L21.80 0L21.80-5.11L17.23-14.22L20.91-14.22ZM43.66 0L41.15-5.02L39.30-5.02L39.30 0L35.87 0L35.87-14.22L41.46-14.22Q43.99-14.22 45.42-13.10Q46.85-11.97 46.85-9.92L46.85-9.92Q46.85-8.44 46.25-7.46Q45.64-6.48 44.37-5.88L44.37-5.88L47.33-0.15L47.33 0L43.66 0ZM39.30-11.57L39.30-7.67L41.46-7.67Q42.44-7.67 42.93-8.18Q43.43-8.69 43.43-9.61Q43.43-10.53 42.93-11.05Q42.43-11.57 41.46-11.57L41.46-11.57L39.30-11.57ZM53.88 0.20L53.88 0.20Q51.45 0.20 49.94-1.25Q48.44-2.71 48.44-5.03L48.44-5.03L48.44-5.30Q48.44-6.92 49.04-8.16Q49.64-9.40 50.79-10.08Q51.94-10.76 53.53-10.76L53.53-10.76Q55.75-10.76 57.04-9.38Q58.33-8.00 58.33-5.53L58.33-5.53L58.33-4.25L51.79-4.25Q51.96-3.36 52.56-2.85Q53.15-2.34 54.10-2.34L54.10-2.34Q55.66-2.34 56.54-3.44L56.54-3.44L58.05-1.66Q57.43-0.81 56.30-0.31Q55.18 0.20 53.88 0.20ZM53.51-8.22L53.51-8.22Q52.06-8.22 51.79-6.31L51.79-6.31L55.11-6.31L55.11-6.56Q55.13-7.35 54.71-7.79Q54.29-8.22 53.51-8.22ZM63.68 0L60.38 0L60.38-8.28L58.85-8.28L58.85-10.57L60.38-10.57L60.38-11.41Q60.38-13.21 61.45-14.21Q62.51-15.21 64.43-15.21L64.43-15.21Q65.14-15.21 65.98-15L65.98-15L65.99-12.58Q65.68-12.67 65.18-12.67L65.18-12.67Q63.68-12.67 63.68-11.38L63.68-11.38L63.68-10.57L65.74-10.57L65.74-8.28L63.68-8.28L63.68 0ZM73.35-10.64L73.29-7.59L72.21-7.67Q70.65-7.67 70.21-6.69L70.21-6.69L70.21 0L66.92 0L66.92-10.57L70.01-10.57L70.12-9.21Q70.95-10.76 72.43-10.76L72.43-10.76Q72.96-10.76 73.35-10.64L73.35-10.64ZM77.95-10.57L77.95 0L74.65 0L74.65-10.57L77.95-10.57ZM74.45-13.29L74.45-13.29Q74.45-13.99 74.96-14.44Q75.47-14.89 76.28-14.89Q77.09-14.89 77.60-14.44Q78.11-13.99 78.11-13.29Q78.11-12.59 77.60-12.14Q77.09-11.69 76.28-11.69Q75.47-11.69 74.96-12.14Q74.45-12.59 74.45-13.29ZM79.59-5.24L79.59-5.36Q79.59-6.96 80.12-8.19Q80.64-9.42 81.63-10.09Q82.62-10.76 83.93-10.76L83.93-10.76Q85.58-10.76 86.50-9.65L86.50-9.65L86.62-10.57L89.61-10.57L89.61-0.40Q89.61 1.00 88.96 2.03Q88.31 3.06 87.08 3.61Q85.85 4.16 84.23 4.16L84.23 4.16Q83.07 4.16 81.98 3.72Q80.89 3.28 80.31 2.58L80.31 2.58L81.69 0.64Q82.61 1.73 84.11 1.73L84.11 1.73Q86.30 1.73 86.30-0.52L86.30-0.52L86.30-0.85Q85.35 0.20 83.91 0.20L83.91 0.20Q81.97 0.20 80.78-1.28Q79.59-2.76 79.59-5.24L79.59-5.24ZM82.89-5.16L82.89-5.16Q82.89-3.86 83.38-3.10Q83.87-2.34 84.75-2.34L84.75-2.34Q85.81-2.34 86.30-3.06L86.30-3.06L86.30-7.50Q85.82-8.22 84.77-8.22L84.77-8.22Q83.89-8.22 83.39-7.44Q82.89-6.65 82.89-5.16ZM96.59 0.20L96.59 0.20Q94.16 0.20 92.66-1.25Q91.15-2.71 91.15-5.03L91.15-5.03L91.15-5.30Q91.15-6.92 91.75-8.16Q92.35-9.40 93.51-10.08Q94.66-10.76 96.24-10.76L96.24-10.76Q98.47-10.76 99.76-9.38Q101.04-8.00 101.04-5.53L101.04-5.53L101.04-4.25L94.50-4.25Q94.68-3.36 95.27-2.85Q95.87-2.34 96.82-2.34L96.82-2.34Q98.38-2.34 99.26-3.44L99.26-3.44L100.76-1.66Q100.15-0.81 99.02-0.31Q97.89 0.20 96.59 0.20ZM96.22-8.22L96.22-8.22Q94.78-8.22 94.50-6.31L94.50-6.31L97.82-6.31L97.82-6.56Q97.84-7.35 97.42-7.79Q97.00-8.22 96.22-8.22ZM108.82-10.64L108.76-7.59L107.68-7.67Q106.12-7.67 105.68-6.69L105.68-6.69L105.68 0L102.39 0L102.39-10.57L105.48-10.57L105.59-9.21Q106.42-10.76 107.90-10.76L107.90-10.76Q108.43-10.76 108.82-10.64L108.82-10.64ZM118.90 0L115.61 0Q115.43-0.32 115.29-0.95L115.29-0.95Q114.38 0.20 112.75 0.20L112.75 0.20Q111.26 0.20 110.21-0.71Q109.17-1.61 109.17-2.98L109.17-2.98Q109.17-4.70 110.44-5.58Q111.71-6.46 114.13-6.46L114.13-6.46L115.15-6.46L115.15-7.01Q115.15-8.47 113.89-8.47L113.89-8.47Q112.71-8.47 112.71-7.31L112.71-7.31L109.42-7.31Q109.42-8.85 110.73-9.80Q112.03-10.76 114.05-10.76Q116.07-10.76 117.25-9.78Q118.42-8.79 118.45-7.07L118.45-7.07L118.45-2.39Q118.47-0.94 118.90-0.17L118.90-0.17L118.90 0ZM113.54-2.15L113.54-2.15Q114.16-2.15 114.57-2.41Q114.97-2.68 115.15-3.01L115.15-3.01L115.15-4.70L114.19-4.70Q112.47-4.70 112.47-3.15L112.47-3.15Q112.47-2.71 112.77-2.43Q113.08-2.15 113.54-2.15ZM124.74-2.34L124.74-2.34Q125.43-2.34 125.81-2.72Q126.19-3.10 126.18-3.77L126.18-3.77L129.27-3.77Q129.27-2.03 128.02-0.92Q126.78 0.20 124.81 0.20L124.81 0.20Q122.51 0.20 121.18-1.25Q119.85-2.70 119.85-5.25L119.85-5.25L119.85-5.39Q119.85-6.99 120.44-8.22Q121.04-9.44 122.15-10.10Q123.26-10.76 124.79-10.76L124.79-10.76Q126.85-10.76 128.06-9.62Q129.27-8.48 129.27-6.52L129.27-6.52L126.18-6.52Q126.18-7.34 125.78-7.78Q125.38-8.22 124.71-8.22L124.71-8.22Q123.43-8.22 123.21-6.59L123.21-6.59Q123.14-6.07 123.14-5.17L123.14-5.17Q123.14-3.57 123.53-2.96Q123.91-2.34 124.74-2.34ZM134.13-10.57L134.13 0L130.83 0L130.83-10.57L134.13-10.57ZM130.63-13.29L130.63-13.29Q130.63-13.99 131.14-14.44Q131.65-14.89 132.46-14.89Q133.27-14.89 133.78-14.44Q134.29-13.99 134.29-13.29Q134.29-12.59 133.78-12.14Q133.27-11.69 132.46-11.69Q131.65-11.69 131.14-12.14Q130.63-12.59 130.63-13.29ZM135.75-4.82L135.74-5.38Q135.74-6.96 136.36-8.20Q136.97-9.43 138.13-10.10Q139.28-10.76 140.83-10.76L140.83-10.76Q143.20-10.76 144.57-9.29Q145.94-7.82 145.94-5.29L145.94-5.29L145.94-5.18Q145.94-2.71 144.57-1.25Q143.19 0.20 140.85 0.20L140.85 0.20Q138.59 0.20 137.23-1.16Q135.86-2.51 135.75-4.82L135.75-4.82ZM139.04-5.77L139.03-5.18Q139.03-3.71 139.49-3.03Q139.95-2.34 140.85-2.34L140.85-2.34Q142.61-2.34 142.65-5.05L142.65-5.05L142.65-5.38Q142.65-8.22 140.83-8.22L140.83-8.22Q139.18-8.22 139.04-5.77L139.04-5.77ZM139.36-11.93L141.28-15L144.76-15L142.04-11.93L139.36-11.93ZM147.32-10.57L150.41-10.57L150.52-9.33Q151.61-10.76 153.54-10.76L153.54-10.76Q155.19-10.76 156.00-9.78Q156.82-8.79 156.85-6.81L156.85-6.81L156.85 0L153.54 0L153.54-6.67Q153.54-7.47 153.22-7.85Q152.90-8.22 152.05-8.22L152.05-8.22Q151.08-8.22 150.62-7.46L150.62-7.46L150.62 0L147.32 0L147.32-10.57Z"></path></g></g></svg><style>@media (prefers-color-scheme: light) { :root { filter: none; } }
@media (prefers-color-scheme: dark) { :root { filter: none; } }
</style></svg>