<?xml version="1.0" encoding="UTF-8"?>
<svg width="24" height="24" viewBox="0 0 24 24" fill="none" xmlns="http://www.w3.org/2000/svg">
    <path d="M12 2.04C6.54 2.04 2.04 6.54 2.04 12s4.5 9.96 9.96 9.96 9.96-4.5 9.96-9.96S17.46 2.04 12 2.04zm0 17.92c-4.38 0-7.92-3.54-7.92-7.92s3.54-7.92 7.92-7.92c4.38 0 7.92 3.54 7.92 7.92s-3.54 7.92-7.92 7.92z" fill="#4285F4"/>
    <path d="M12 11.2c1.32 0 2.4-.4 3.28-1.12l-1.55-1.22c-.78.52-1.82.84-3.28 1.12z" fill="#34A853"/>
    <path d="M12 5.2c1.65 0 3.06.56 4.2 1.64l-1.55 1.22c-1.14-.68-2.56-1.04-4.2-1.04z" fill="#FBBC05"/>
    <path d="M16.36 12.38c0-.78-.13-1.53-.38-2.2l1.55-1.22C17.65 10.4 18 11.5 18 12.6s-.35 2.2-1.04 3.18l-1.55-1.23c.25-.67.38-1.42.38-2.22z" fill="#EA4335"/>
</svg>
