<svg xmlns="http://www.w3.org/2000/svg" version="1.1" xmlns:xlink="http://www.w3.org/1999/xlink" viewBox="0 0 200 200"><rect width="200" height="200" fill="url('#gradient')"></rect><defs><linearGradient id="gradient" gradientTransform="rotate(45 0.5 0.5)"><stop offset="0%" stop-color="#0c50e8"></stop><stop offset="100%" stop-color="#d9e241"></stop></linearGradient></defs><g><g fill="#1b3855" transform="matrix(1.4451936647326329,0,0,1.4451936647326329,8.447372484285665,110.69677669919358)" stroke="#0e5278" stroke-width="0.2"><path d="M4.50-14.22L4.50-2.64L10.47-2.64L10.47 0L1.07 0L1.07-14.22L4.50-14.22ZM18.02 0L17.92-1.14Q16.88 0.20 15.10 0.20L15.10 0.20Q13.36 0.20 12.47-0.82Q11.57-1.83 11.57-3.72L11.57-3.72L11.57-10.57L14.86-10.57L14.86-3.70Q14.86-2.34 16.18-2.34L16.18-2.34Q17.31-2.34 17.79-3.15L17.79-3.15L17.79-10.57L21.10-10.57L21.10 0L18.02 0ZM32.71-5.36L32.71-5.20Q32.71-2.60 31.64-1.20Q30.57 0.20 28.61 0.20L28.61 0.20Q27.00 0.20 26.02-1.08L26.02-1.08L25.88 0L22.93 0L22.93-15L26.22-15L26.22-9.72Q27.14-10.76 28.59-10.76L28.59-10.76Q30.57-10.76 31.64-9.35Q32.71-7.93 32.71-5.36L32.71-5.36ZM29.41-5.40L29.41-5.40Q29.41-6.92 29.01-7.57Q28.60-8.22 27.76-8.22L27.76-8.22Q26.65-8.22 26.22-7.37L26.22-7.37L26.22-3.17Q26.64-2.33 27.78-2.33L27.78-2.33Q28.95-2.33 29.26-3.47L29.26-3.47Q29.41-4.02 29.41-5.40ZM40.62-10.64L40.56-7.59L39.47-7.67Q37.92-7.67 37.48-6.69L37.48-6.69L37.48 0L34.19 0L34.19-10.57L37.28-10.57L37.38-9.21Q38.21-10.76 39.70-10.76L39.70-10.76Q40.22-10.76 40.62-10.64L40.62-10.64ZM45.21-10.57L45.21 0L41.91 0L41.91-10.57L45.21-10.57ZM41.72-13.29L41.72-13.29Q41.72-13.99 42.23-14.44Q42.73-14.89 43.54-14.89Q44.36-14.89 44.86-14.44Q45.37-13.99 45.37-13.29Q45.37-12.59 44.86-12.14Q44.36-11.69 43.54-11.69Q42.73-11.69 42.23-12.14Q41.72-12.59 41.72-13.29ZM51.71-2.34L51.71-2.34Q52.40-2.34 52.78-2.72Q53.16-3.10 53.15-3.77L53.15-3.77L56.24-3.77Q56.24-2.03 55.00-0.92Q53.75 0.20 51.79 0.20L51.79 0.20Q49.48 0.20 48.15-1.25Q46.83-2.70 46.83-5.25L46.83-5.25L46.83-5.39Q46.83-6.99 47.42-8.22Q48.01-9.44 49.12-10.10Q50.23-10.76 51.76-10.76L51.76-10.76Q53.82-10.76 55.03-9.62Q56.24-8.48 56.24-6.52L56.24-6.52L53.15-6.52Q53.15-7.34 52.75-7.78Q52.35-8.22 51.68-8.22L51.68-8.22Q50.40-8.22 50.19-6.59L50.19-6.59Q50.12-6.07 50.12-5.17L50.12-5.17Q50.12-3.57 50.50-2.96Q50.88-2.34 51.71-2.34ZM62.74 0.20L62.74 0.20Q60.31 0.20 58.81-1.25Q57.30-2.71 57.30-5.03L57.30-5.03L57.30-5.30Q57.30-6.92 57.91-8.16Q58.51-9.40 59.66-10.08Q60.81-10.76 62.39-10.76L62.39-10.76Q64.62-10.76 65.91-9.38Q67.20-8.00 67.20-5.53L67.20-5.53L67.20-4.25L60.65-4.25Q60.83-3.36 61.43-2.85Q62.02-2.34 62.97-2.34L62.97-2.34Q64.53-2.34 65.41-3.44L65.41-3.44L66.91-1.66Q66.30-0.81 65.17-0.31Q64.04 0.20 62.74 0.20ZM62.37-8.22L62.37-8.22Q60.93-8.22 60.65-6.31L60.65-6.31L63.97-6.31L63.97-6.56Q63.99-7.35 63.57-7.79Q63.15-8.22 62.37-8.22ZM68.46-10.57L71.54-10.57L71.65-9.33Q72.74-10.76 74.67-10.76L74.67-10.76Q76.32-10.76 77.13-9.78Q77.95-8.79 77.98-6.81L77.98-6.81L77.98 0L74.68 0L74.68-6.67Q74.68-7.47 74.36-7.85Q74.03-8.22 73.18-8.22L73.18-8.22Q72.22-8.22 71.75-7.46L71.75-7.46L71.75 0L68.46 0L68.46-10.57ZM80.34-13.19L83.63-13.19L83.63-10.57L85.37-10.57L85.37-8.28L83.63-8.28L83.63-3.45Q83.63-2.85 83.85-2.62Q84.06-2.38 84.70-2.38L84.70-2.38Q85.19-2.38 85.52-2.44L85.52-2.44L85.52-0.09Q84.63 0.20 83.66 0.20L83.66 0.20Q81.96 0.20 81.15-0.61Q80.34-1.41 80.34-3.04L80.34-3.04L80.34-8.28L78.99-8.28L78.99-10.57L80.34-10.57L80.34-13.19ZM93.12-10.64L93.06-7.59L91.97-7.67Q90.42-7.67 89.98-6.69L89.98-6.69L89.98 0L86.69 0L86.69-10.57L89.78-10.57L89.88-9.21Q90.71-10.76 92.20-10.76L92.20-10.76Q92.72-10.76 93.12-10.64L93.12-10.64ZM93.49-4.82L93.48-5.38Q93.48-6.96 94.09-8.20Q94.71-9.43 95.86-10.10Q97.01-10.76 98.56-10.76L98.56-10.76Q100.94-10.76 102.30-9.29Q103.67-7.82 103.67-5.29L103.67-5.29L103.67-5.18Q103.67-2.71 102.30-1.25Q100.93 0.20 98.58 0.20L98.58 0.20Q96.33 0.20 94.96-1.16Q93.59-2.51 93.49-4.82L93.49-4.82ZM96.78-5.77L96.77-5.18Q96.77-3.71 97.23-3.03Q97.69-2.34 98.58-2.34L98.58-2.34Q100.34-2.34 100.38-5.05L100.38-5.05L100.38-5.38Q100.38-8.22 98.56-8.22L98.56-8.22Q96.91-8.22 96.78-5.77L96.78-5.77ZM108.70-14.22L108.70-2.64L114.67-2.64L114.67 0L105.27 0L105.27-14.22L108.70-14.22ZM125.07-8.30L125.07-5.66L119.54-5.66L119.54 0L116.11 0L116.11-14.22L125.63-14.22L125.63-11.57L119.54-11.57L119.54-8.30L125.07-8.30Z"></path></g></g></svg>